<svg width="38" height="36" viewBox="0 0 38 36" fill="none" xmlns="http://www.w3.org/2000/svg">
<path d="M23.6663 25C23.6663 25.6449 23.1445 26.1667 22.4997 26.1667H15.4997C14.858 26.1667 14.333 25.6417 14.333 25V21.5H0.333008V32C0.333008 33.8667 1.96707 35.5 3.83301 35.5H34.1663C36.0323 35.5 37.6663 33.8659 37.6663 32V21.5H23.6663V25ZM34.1663 7.5H28.333V4C28.333 2.13406 26.6997 0.5 24.833 0.5H13.1663C11.2997 0.5 9.66634 2.13406 9.66634 4V7.5H3.83301C1.96707 7.5 0.333008 9.13333 0.333008 11V19.1667H37.6663V11C37.6663 9.13333 36.033 7.5 34.1663 7.5ZM24.833 7.5H13.1663V4H24.833V7.5Z" fill="#2A58EC"/>
</svg>
